<?xml version="1.0" encoding="iso-8859-1"?>
<!-- Generator: Adobe Illustrator 18.0.0, SVG Export Plug-In . SVG Version: 6.00 Build 0)  -->
<!DOCTYPE svg PUBLIC "-//W3C//DTD SVG 1.1 Tiny//EN" "http://www.w3.org/Graphics/SVG/1.1/DTD/svg11-tiny.dtd">
<svg version="1.1" baseProfile="tiny" id="Layer_1" xmlns="http://www.w3.org/2000/svg" xmlns:xlink="http://www.w3.org/1999/xlink"
	 x="0px" y="0px" viewBox="0 0 708.66 586.25" xml:space="preserve">
<g>
	<path fill="#EF9314" d="M313.672,455.139L313.672,455.139c-12.003,0-21.734-9.73-21.734-21.734V252.267
		c0-8.774,5.275-16.687,13.374-20.062l153.83-64.098c11.079-4.616,23.802,0.622,28.42,11.7l0.003,0.006
		c4.618,11.08-0.621,23.807-11.702,28.423l-127.082,52.946c-8.099,3.374-13.375,11.288-13.375,20.062v152.159
		C335.406,445.408,325.675,455.139,313.672,455.139z"/>
</g>
<g>
	<path fill="#EF9314" d="M368.413,429.935L368.413,429.935c-5.336,0-9.662-4.326-9.662-9.662V282.594
		c0-5.336,4.326-9.662,9.662-9.662l0,0c5.336,0,9.662,4.326,9.662,9.662v137.679C378.075,425.609,373.749,429.935,368.413,429.935z"
		/>
</g>
<g>
	<path fill="#D6D6D6" d="M80.675,389.969h-1.662c-4.23,0-7.66-3.429-7.66-7.66v-6.891c0-1.818-0.34-3.005-1.015-3.562
		c-0.678-0.555-2.123-0.834-4.337-0.834h-9.414c-2.215,0-3.691,0.279-4.43,0.834c-0.739,0.557-1.108,1.743-1.108,3.562v64.72
		c0,1.818,0.369,3.008,1.108,3.562c0.738,0.557,2.215,0.834,4.43,0.834h9.414c2.215,0,3.66-0.277,4.337-0.834
		c0.675-0.554,1.015-1.743,1.015-3.562v-6.74c0-4.23,3.429-7.66,7.66-7.66h1.662c4.23,0,7.66,3.429,7.66,7.66v8.406
		c0,8.994-5.786,13.489-17.351,13.489H51.419c-11.444,0-17.166-4.495-17.166-13.489V373.6c0-8.891,5.722-13.338,17.166-13.338
		h19.565c11.565,0,17.351,4.447,17.351,13.338v8.709C88.335,386.539,84.906,389.969,80.675,389.969z"/>
	<path fill="#D6D6D6" d="M164.395,449.057l-2.059-9.806c-0.745-3.546-3.873-6.086-7.496-6.086h-11.824
		c-3.67,0-6.825,2.603-7.521,6.207l-1.847,9.563c-0.696,3.604-3.851,6.207-7.521,6.207h-0.8c-4.882,0-8.518-4.505-7.487-9.277
		l17.18-79.561c0.761-3.526,3.88-6.043,7.487-6.043h11.908c3.565,0,6.659,2.459,7.463,5.932l18.418,79.561
		c1.111,4.801-2.534,9.387-7.463,9.387h-0.942C168.268,455.143,165.14,452.603,164.395,449.057z M147.994,422.101h1.411
		c4.865,0,8.497-4.476,7.496-9.237l-0.738-3.507c-1.722-8.185-13.442-8.081-15.019,0.133l-0.673,3.507
		C139.565,417.72,143.185,422.101,147.994,422.101z"/>
	<path fill="#D6D6D6" d="M261.561,360.262L261.561,360.262c4.23,0,7.66,3.429,7.66,7.66v79.561c0,4.23-3.429,7.66-7.66,7.66h-3.731
		c-3.241,0-6.131-2.04-7.217-5.093l-7.676-21.585c-2.882-8.105-14.877-6.035-14.877,2.567v16.451c0,4.23-3.429,7.66-7.66,7.66h0
		c-4.23,0-7.66-3.429-7.66-7.66v-79.561c0-4.23,3.429-7.66,7.66-7.66h4.467c3.242,0,6.133,2.041,7.218,5.097l6.938,19.539
		c2.879,8.108,14.878,6.041,14.878-2.563v-14.413C253.901,363.691,257.33,360.262,261.561,360.262z"/>
</g>
<g>
	<path fill="#F6B12F" d="M642.134,549.317L642.134,549.317c-12.003,0-21.734-9.73-21.734-21.734V233.797
		c0-5.407-2.015-10.619-5.652-14.62l-67.635-74.398c-13.363-14.699-37.815-5.246-37.815,14.62v295.743
		c0,12.003-9.73,21.734-21.734,21.734h0c-12.003,0-21.734-9.73-21.734-21.734V46.959c0-19.865,24.453-29.319,37.815-14.619
		l154.569,170.03c3.637,4.001,5.652,9.213,5.652,14.619v310.595C663.868,539.587,654.137,549.317,642.134,549.317z"/>
</g>
<g>
	<path fill="#F6B12F" d="M642.133,307.799c-2.544,0-5.082-0.996-6.98-2.979l-90.165-94.178c-3.69-3.852-3.558-9.968,0.297-13.658
		c3.852-3.69,9.97-3.56,13.658,0.297l90.165,94.178c3.69,3.852,3.558,9.968-0.297,13.658
		C646.941,306.909,644.535,307.799,642.133,307.799z"/>
</g>
<g>
	<path fill="#F6B12F" d="M642.133,374.225c-2.544,0-5.084-0.996-6.98-2.979l-90.165-94.182c-3.69-3.852-3.558-9.968,0.297-13.658
		c3.852-3.69,9.97-3.56,13.658,0.297l90.165,94.182c3.69,3.852,3.558,9.968-0.297,13.658
		C646.941,373.336,644.535,374.225,642.133,374.225z"/>
</g>
<g>
	<path fill="#F6B12F" d="M642.133,440.648c-2.544,0-5.084-0.996-6.98-2.979l-90.165-94.182c-3.69-3.852-3.558-9.968,0.297-13.658
		c3.852-3.69,9.97-3.56,13.658,0.297l90.165,94.182c3.69,3.852,3.558,9.968-0.297,13.658
		C646.941,439.758,644.535,440.648,642.133,440.648z"/>
</g>
<g>
	<path fill="#FCFCFC" d="M76.104,549.315H63.907v-21.248H45.839v21.248H33.572v-50.885h12.267v20.2h18.068v-20.2h12.197V549.315z"/>
	<path fill="#FCFCFC" d="M122.578,527.718h-19.292v12.162h22.786v9.436H91.02v-50.885h35.123v9.472h-22.856v10.729h19.292V527.718z"
		/>
	<path fill="#FCFCFC" d="M138.228,549.315v-50.885h18.278c6.547,0,11.527,1.201,14.94,3.601c3.413,2.399,5.12,5.883,5.12,10.449
		c0,2.633-0.606,4.881-1.817,6.745s-2.994,3.238-5.347,4.123c2.656,0.699,4.694,2.005,6.116,3.915
		c1.421,1.91,2.132,4.24,2.132,6.989c0,4.986-1.579,8.731-4.735,11.235c-3.157,2.505-7.834,3.78-14.032,3.827H138.228z
		 M150.494,519.645h6.396c2.679-0.022,4.59-0.514,5.731-1.472s1.712-2.372,1.712-4.242c0-2.149-0.617-3.697-1.852-4.644
		c-1.235-0.946-3.227-1.42-5.976-1.42h-6.011V519.645z M150.494,527.683v12.197h8.038c2.213,0,3.915-0.507,5.103-1.521
		c1.188-1.014,1.782-2.44,1.782-4.281c0-4.24-2.109-6.372-6.326-6.396H150.494z"/>
	<path fill="#FCFCFC" d="M223.109,527.718h-19.292v12.162h22.786v9.436h-35.053v-50.885h35.123v9.472h-22.856v10.729h19.292V527.718
		z"/>
	<path fill="#FCFCFC" d="M257.666,531.317h-6.64v17.998h-12.267v-50.885h20.025c6.034,0,10.752,1.339,14.154,4.015
		c3.401,2.678,5.103,6.459,5.103,11.347c0,3.538-0.717,6.47-2.149,8.798c-1.433,2.327-3.676,4.213-6.728,5.655l10.624,20.546v0.524
		h-13.14L257.666,531.317z M251.025,521.881h7.759c2.33,0,4.083-0.612,5.26-1.839c1.176-1.227,1.765-2.938,1.765-5.133
		s-0.594-3.918-1.782-5.167c-1.188-1.25-2.936-1.875-5.242-1.875h-7.759V521.881z"/>
	<path fill="#FCFCFC" d="M334.265,543.024c-1.887,2.098-4.648,3.787-8.283,5.067c-3.635,1.281-7.619,1.923-11.952,1.923
		c-6.664,0-11.987-2.039-15.971-6.116c-3.984-4.077-6.116-9.75-6.396-17.02l-0.035-4.403c0-5.009,0.885-9.384,2.656-13.123
		c1.77-3.739,4.304-6.617,7.601-8.632c3.296-2.016,7.112-3.023,11.445-3.023c6.337,0,11.259,1.45,14.766,4.351
		c3.506,2.901,5.551,7.229,6.133,12.983h-11.813c-0.419-2.842-1.328-4.869-2.726-6.081c-1.398-1.211-3.379-1.817-5.941-1.817
		c-3.075,0-5.452,1.306-7.129,3.915c-1.677,2.609-2.528,6.337-2.551,11.183v3.075c0,5.08,0.868,8.895,2.604,11.446
		c1.735,2.551,4.468,3.826,8.195,3.826c3.192,0,5.568-0.71,7.129-2.132v-7.897h-8.527v-8.423h20.794V543.024z"/>
	<path fill="#FCFCFC" d="M380.109,527.718h-19.291v12.162h22.787v9.436h-35.054v-50.885h35.122v9.472h-22.855v10.729h19.291V527.718
		z"/>
	<path fill="#FCFCFC" d="M411.87,498.431l11.358,35.402l11.323-35.402h16.146v50.885h-12.302v-11.882l1.188-24.324l-12.302,36.206
		h-8.107l-12.337-36.241l1.188,24.359v11.882H395.76v-50.885H411.87z"/>
	<path fill="#FCFCFC" d="M497.207,527.718h-19.291v12.162h22.786v9.436h-35.053v-50.885h35.122v9.472h-22.855v10.729h19.291V527.718
		z"/>
	<path fill="#FCFCFC" d="M555.353,549.315h-12.196l-18.033-31.663v31.663h-12.267v-50.885h12.267l17.998,31.663v-31.663h12.231
		V549.315z"/>
	<path fill="#FCFCFC" d="M609.201,507.902h-15.272v41.413h-12.267v-41.413h-14.993v-9.472h42.532V507.902z"/>
</g>
<path fill="#FFFFFF" d="M301.492,278.359c-1.966,0-3.874,0.243-5.701,0.694c0.408-1.778,0.63-3.625,0.63-5.526
	c0-13.602-11.027-24.628-24.628-24.628c-5.162,0-9.95,1.591-13.909,4.305c-4.62-17.801-20.795-30.944-40.041-30.944
	c-22.845,0-41.366,18.52-41.366,41.366c-17.176,0-31.1,13.924-31.1,31.1c0,17.176,13.924,31.1,31.1,31.1h125.014
	c13.108,0,23.734-10.626,23.734-23.734C325.225,288.985,314.6,278.359,301.492,278.359z"/>
</svg>
